<svg fill="none" height="25" viewBox="0 0 25 25" width="25" xmlns="http://www.w3.org/2000/svg">
<path clip-rule="evenodd" d="M9.375 12.5C9.375 12.7072 9.45731 12.9059 9.60382 13.0524C9.75034 13.1989 9.94905 13.2812 10.1562 13.2812H19.2078L15.8531 16.6344C15.7064 16.7811 15.624 16.98 15.624 17.1875C15.624 17.395 15.7064 17.5939 15.8531 17.7406C15.9998 17.8873 16.1988 17.9697 16.4062 17.9697C16.6137 17.9697 16.8127 17.8873 16.9594 17.7406L21.6469 13.0531C21.7196 12.9806 21.7774 12.8943 21.8167 12.7994C21.8561 12.7045 21.8764 12.6028 21.8764 12.5C21.8764 12.3972 21.8561 12.2955 21.8167 12.2006C21.7774 12.1057 21.7196 12.0194 21.6469 11.9469L16.9594 7.25937C16.8127 7.11268 16.6137 7.03026 16.4062 7.03026C16.1988 7.03026 15.9998 7.11268 15.8531 7.25937C15.7064 7.40607 15.624 7.60504 15.624 7.8125C15.624 8.01996 15.7064 8.21893 15.8531 8.36563L19.2078 11.7188H10.1562C9.94905 11.7188 9.75034 11.8011 9.60382 11.9476C9.45731 12.0941 9.375 12.2928 9.375 12.5ZM5.46875 23.4375C5.26155 23.4375 5.06284 23.3552 4.91632 23.2087C4.76981 23.0622 4.6875 22.8635 4.6875 22.6562V2.34375C4.6875 2.13655 4.76981 1.93784 4.91632 1.79132C5.06284 1.64481 5.26155 1.5625 5.46875 1.5625C5.67595 1.5625 5.87466 1.64481 6.02118 1.79132C6.16769 1.93784 6.25 2.13655 6.25 2.34375V22.6562C6.25 22.8635 6.16769 23.0622 6.02118 23.2087C5.87466 23.3552 5.67595 23.4375 5.46875 23.4375Z" fill="#FF5722" fill-rule="evenodd"/>
</svg>
