<svg fill="none" height="45" viewBox="0 0 195 45" width="195" xmlns="http://www.w3.org/2000/svg">
<path d="M21.99 17.164C23.9827 17.7193 25.518 18.732 26.596 20.202C27.7067 21.672 28.262 23.4687 28.262 25.592C28.262 28.532 27.2003 30.835 25.077 32.501C22.9863 34.167 20.0953 35 16.404 35H3.762C2.81467 35 2.06333 34.7387 1.508 34.216C0.985334 33.6933 0.724 32.9583 0.724 32.011V3.444C0.724 2.49666 0.985334 1.76167 1.508 1.239C2.06333 0.716332 2.81467 0.454998 3.762 0.454998H15.914C19.5073 0.454998 22.3167 1.25533 24.342 2.856C26.4 4.424 27.429 6.629 27.429 9.471C27.429 11.3003 26.939 12.8847 25.959 14.224C25.0117 15.5633 23.6887 16.5433 21.99 17.164ZM6.898 15.008H14.885C19.2297 15.008 21.402 13.391 21.402 10.157C21.402 8.52366 20.863 7.315 19.785 6.531C18.707 5.747 17.0737 5.355 14.885 5.355H6.898V15.008ZM15.718 30.1C18.0047 30.1 19.6707 29.6917 20.716 28.875C21.7613 28.0583 22.284 26.7843 22.284 25.053C22.284 23.3217 21.745 22.0313 20.667 21.182C19.6217 20.3327 17.972 19.908 15.718 19.908H6.898V30.1H15.718ZM36.6712 35.294C35.7892 35.294 35.0542 35.049 34.4662 34.559C33.9109 34.0363 33.6332 33.3013 33.6332 32.354V3.101C33.6332 2.15367 33.9109 1.435 34.4662 0.944997C35.0542 0.454998 35.7892 0.209998 36.6712 0.209998C37.5532 0.209998 38.2882 0.454998 38.8762 0.944997C39.4642 1.435 39.7582 2.15367 39.7582 3.101V32.354C39.7582 33.3013 39.4642 34.0363 38.8762 34.559C38.2882 35.049 37.5532 35.294 36.6712 35.294ZM57.0016 35.392C54.5516 35.392 52.3956 34.8857 50.5336 33.873C48.7043 32.8603 47.2833 31.4067 46.2706 29.512C45.258 27.6173 44.7516 25.4123 44.7516 22.897C44.7516 20.3817 45.258 18.193 46.2706 16.331C47.2833 14.4363 48.7043 12.9827 50.5336 11.97C52.3956 10.9573 54.5516 10.451 57.0016 10.451C59.4516 10.451 61.5913 10.9573 63.4206 11.97C65.2826 12.9827 66.7036 14.4363 67.6837 16.331C68.6963 18.193 69.2026 20.3817 69.2026 22.897C69.2026 25.4123 68.6963 27.6173 67.6837 29.512C66.7036 31.4067 65.2826 32.8603 63.4206 33.873C61.5913 34.8857 59.4516 35.392 57.0016 35.392ZM56.9526 30.639C58.9453 30.639 60.4643 29.9857 61.5096 28.679C62.555 27.3723 63.0776 25.445 63.0776 22.897C63.0776 20.3817 62.555 18.4707 61.5096 17.164C60.4643 15.8247 58.9616 15.155 57.0016 15.155C55.0416 15.155 53.5226 15.8247 52.4446 17.164C51.3993 18.4707 50.8766 20.3817 50.8766 22.897C50.8766 25.445 51.3993 27.3723 52.4446 28.679C53.49 29.9857 54.9926 30.639 56.9526 30.639ZM94.5452 10.549C95.4599 10.549 96.1949 10.8103 96.7502 11.333C97.3056 11.8557 97.5832 12.558 97.5832 13.44V32.795C97.5832 36.5517 96.5379 39.3937 94.4472 41.321C92.3566 43.2483 89.2696 44.212 85.1862 44.212C81.6256 44.212 78.6529 43.5423 76.2682 42.203C75.0596 41.4843 74.4552 40.6187 74.4552 39.606C74.4552 38.8873 74.6186 38.3157 74.9452 37.891C75.3046 37.4663 75.7619 37.254 76.3172 37.254C76.6112 37.254 76.9706 37.3193 77.3952 37.45C77.8199 37.6133 78.2609 37.793 78.7182 37.989C79.8942 38.479 80.9396 38.8547 81.8542 39.116C82.8016 39.3773 83.8796 39.508 85.0882 39.508C89.3676 39.508 91.5072 37.4173 91.5072 33.236V30.1C90.7886 31.4393 89.7432 32.4847 88.3712 33.236C86.9992 33.9547 85.4312 34.314 83.6672 34.314C81.5766 34.314 79.7146 33.824 78.0812 32.844C76.4806 31.8313 75.2229 30.4267 74.3082 28.63C73.3936 26.8333 72.9362 24.759 72.9362 22.407C72.9362 20.055 73.3772 17.9807 74.2592 16.184C75.1739 14.3547 76.4479 12.95 78.0812 11.97C79.7146 10.9573 81.5766 10.451 83.6672 10.451C85.4312 10.451 86.9992 10.8267 88.3712 11.578C89.7432 12.2967 90.7886 13.3257 91.5072 14.665V13.391C91.5072 12.5417 91.7849 11.8557 92.3402 11.333C92.8956 10.8103 93.6306 10.549 94.5452 10.549ZM85.2842 29.561C87.2442 29.561 88.7632 28.924 89.8412 27.65C90.9519 26.376 91.5072 24.6283 91.5072 22.407C91.5072 20.153 90.9519 18.389 89.8412 17.115C88.7632 15.841 87.2442 15.204 85.2842 15.204C83.3569 15.204 81.8379 15.841 80.7272 17.115C79.6166 18.389 79.0612 20.153 79.0612 22.407C79.0612 24.6283 79.6166 26.376 80.7272 27.65C81.8379 28.924 83.3569 29.561 85.2842 29.561Z" fill="#353D49"/>
<path d="M135.777 31.227C135.973 31.6517 136.071 32.0763 136.071 32.501C136.071 33.2523 135.761 33.8893 135.14 34.412C134.552 34.9347 133.866 35.196 133.082 35.196C132.56 35.196 132.07 35.0653 131.612 34.804C131.155 34.51 130.796 34.069 130.534 33.481L127.594 26.915H110.346L107.406 33.481C107.145 34.069 106.786 34.51 106.328 34.804C105.871 35.0653 105.365 35.196 104.809 35.196C104.058 35.196 103.372 34.9347 102.751 34.412C102.131 33.8893 101.82 33.2523 101.82 32.501C101.82 32.0763 101.918 31.6517 102.114 31.227L115.638 2.17C115.932 1.51666 116.373 1.02666 116.961 0.699998C117.582 0.340665 118.235 0.160999 118.921 0.160999C119.607 0.160999 120.244 0.340665 120.832 0.699998C121.453 1.02666 121.91 1.51666 122.204 2.17L135.777 31.227ZM112.502 22.015H125.438L118.97 7.462L112.502 22.015ZM154.063 10.451C156.121 10.451 157.951 10.9737 159.551 12.019C161.185 13.0643 162.442 14.5507 163.324 16.478C164.239 18.3727 164.696 20.5613 164.696 23.044C164.696 25.5267 164.239 27.699 163.324 29.561C162.442 31.423 161.201 32.8603 159.6 33.873C158 34.8857 156.154 35.392 154.063 35.392C152.365 35.392 150.846 35.0327 149.506 34.314C148.167 33.5953 147.138 32.599 146.419 31.325V41.321C146.419 42.1703 146.142 42.84 145.586 43.33C145.031 43.82 144.296 44.065 143.381 44.065C142.467 44.065 141.715 43.8037 141.127 43.281C140.572 42.7583 140.294 42.0723 140.294 41.223V13.44C140.294 12.558 140.556 11.8557 141.078 11.333C141.634 10.8103 142.369 10.549 143.283 10.549C144.198 10.549 144.933 10.8103 145.488 11.333C146.044 11.8557 146.321 12.558 146.321 13.44V14.665C147.04 13.3257 148.069 12.2967 149.408 11.578C150.78 10.8267 152.332 10.451 154.063 10.451ZM152.446 30.639C154.374 30.639 155.876 29.9857 156.954 28.679C158.032 27.3397 158.571 25.4613 158.571 23.044C158.571 20.5613 158.032 18.634 156.954 17.262C155.876 15.89 154.374 15.204 152.446 15.204C150.486 15.204 148.967 15.8737 147.889 17.213C146.844 18.5523 146.321 20.4633 146.321 22.946C146.321 25.396 146.844 27.2907 147.889 28.63C148.967 29.9693 150.486 30.639 152.446 30.639ZM183.492 10.451C185.55 10.451 187.379 10.9737 188.98 12.019C190.613 13.0643 191.871 14.5507 192.753 16.478C193.668 18.3727 194.125 20.5613 194.125 23.044C194.125 25.5267 193.668 27.699 192.753 29.561C191.871 31.423 190.63 32.8603 189.029 33.873C187.428 34.8857 185.583 35.392 183.492 35.392C181.793 35.392 180.274 35.0327 178.935 34.314C177.596 33.5953 176.567 32.599 175.848 31.325V41.321C175.848 42.1703 175.57 42.84 175.015 43.33C174.46 43.82 173.725 44.065 172.81 44.065C171.895 44.065 171.144 43.8037 170.556 43.281C170.001 42.7583 169.723 42.0723 169.723 41.223V13.44C169.723 12.558 169.984 11.8557 170.507 11.333C171.062 10.8103 171.797 10.549 172.712 10.549C173.627 10.549 174.362 10.8103 174.917 11.333C175.472 11.8557 175.75 12.558 175.75 13.44V14.665C176.469 13.3257 177.498 12.2967 178.837 11.578C180.209 10.8267 181.761 10.451 183.492 10.451ZM181.875 30.639C183.802 30.639 185.305 29.9857 186.383 28.679C187.461 27.3397 188 25.4613 188 23.044C188 20.5613 187.461 18.634 186.383 17.262C185.305 15.89 183.802 15.204 181.875 15.204C179.915 15.204 178.396 15.8737 177.318 17.213C176.273 18.5523 175.75 20.4633 175.75 22.946C175.75 25.396 176.273 27.2907 177.318 28.63C178.396 29.9693 179.915 30.639 181.875 30.639Z" fill="#28A0F6"/>
</svg>
